<mxfile host="Electron" modified="2024-03-19T21:08:57.942Z" agent="Mozilla/5.0 (Windows NT 10.0; Win64; x64) AppleWebKit/537.36 (KHTML, like Gecko) draw.io/23.1.5 Chrome/120.0.6099.109 Electron/28.1.0 Safari/537.36" etag="bArFXvdC8iNMOUpi5Wk5" version="23.1.5" type="device">
  <diagram name="Página-1" id="McrSEZHiqLOnxa6ws6xW">
    <mxGraphModel dx="1332" dy="588" grid="1" gridSize="10" guides="1" tooltips="1" connect="1" arrows="1" fold="1" page="1" pageScale="1" pageWidth="827" pageHeight="1169" math="0" shadow="0">
      <root>
        <mxCell id="0" />
        <mxCell id="1" parent="0" />
        <mxCell id="SyFTC8aoyBOmLUA6NoT2-1" value="&lt;div style=&quot;box-sizing:border-box;width:100%;background:#e4e4e4;padding:2px;&quot;&gt;Usuarios&lt;/div&gt;&lt;table cellspacing=&quot;0&quot; cellpadding=&quot;2&quot; style=&quot;width:100%;font-size:1em;&quot;&gt;&lt;tbody&gt;&lt;tr&gt;&lt;td&gt;PK&lt;/td&gt;&lt;td&gt;id_clientes&lt;/td&gt;&lt;/tr&gt;&lt;tr&gt;&lt;td&gt;FK1&lt;/td&gt;&lt;td&gt;id_libros&lt;/td&gt;&lt;/tr&gt;&lt;tr&gt;&lt;td&gt;&lt;/td&gt;&lt;td&gt;nombre_cliente&lt;br&gt;direccion_cliente&lt;br&gt;telefono_cliente&lt;br&gt;id_cliente&lt;br&gt;identificador_unico&lt;/td&gt;&lt;/tr&gt;&lt;/tbody&gt;&lt;/table&gt;" style="verticalAlign=top;align=left;overflow=fill;html=1;whiteSpace=wrap;fontColor=#0b0a0a;fillColor=#1ba1e2;strokeColor=#006EAF;" parent="1" vertex="1">
          <mxGeometry x="480" y="130" width="180" height="150" as="geometry" />
        </mxCell>
        <mxCell id="SyFTC8aoyBOmLUA6NoT2-2" value="" style="endArrow=none;html=1;edgeStyle=orthogonalEdgeStyle;rounded=0;" parent="1" edge="1">
          <mxGeometry relative="1" as="geometry">
            <mxPoint x="310" y="204.5" as="sourcePoint" />
            <mxPoint x="470" y="204.5" as="targetPoint" />
          </mxGeometry>
        </mxCell>
        <mxCell id="SyFTC8aoyBOmLUA6NoT2-3" value="parent" style="edgeLabel;resizable=0;html=1;align=left;verticalAlign=bottom;" parent="SyFTC8aoyBOmLUA6NoT2-2" connectable="0" vertex="1">
          <mxGeometry x="-1" relative="1" as="geometry" />
        </mxCell>
        <mxCell id="SyFTC8aoyBOmLUA6NoT2-4" value="child" style="edgeLabel;resizable=0;html=1;align=right;verticalAlign=bottom;" parent="SyFTC8aoyBOmLUA6NoT2-2" connectable="0" vertex="1">
          <mxGeometry x="1" relative="1" as="geometry" />
        </mxCell>
        <mxCell id="FlWc9ToqDhQKcGbicOjH-3" value="&lt;div style=&quot;box-sizing:border-box;width:100%;background:#e4e4e4;padding:2px;&quot;&gt;Libros&lt;/div&gt;&lt;table style=&quot;width:100%;font-size:1em;&quot; cellpadding=&quot;2&quot; cellspacing=&quot;0&quot;&gt;&lt;tbody&gt;&lt;tr&gt;&lt;td&gt;PK&lt;/td&gt;&lt;td&gt;id_libros&lt;/td&gt;&lt;/tr&gt;&lt;tr&gt;&lt;td&gt;&lt;br&gt;&lt;/td&gt;&lt;td&gt;ISBN&lt;/td&gt;&lt;/tr&gt;&lt;tr&gt;&lt;td&gt;&lt;/td&gt;&lt;td&gt;titulo_libro&lt;br&gt;autor_libro&lt;br&gt;año_publicacion&lt;br&gt;cantidad_disponible&lt;/td&gt;&lt;/tr&gt;&lt;/tbody&gt;&lt;/table&gt;" style="verticalAlign=top;align=left;overflow=fill;html=1;whiteSpace=wrap;fillColor=#d80073;fontColor=#ffffff;strokeColor=#A50040;" vertex="1" parent="1">
          <mxGeometry x="120" y="130" width="180" height="160" as="geometry" />
        </mxCell>
      </root>
    </mxGraphModel>
  </diagram>
</mxfile>
